<svg id="visual" viewBox="0 0 900 600" width="900" height="600" xmlns="http://www.w3.org/2000/svg" xmlns:xlink="http://www.w3.org/1999/xlink" version="1.1"><rect x="0" y="0" width="900" height="600" fill="#e8e2d4"></rect><path d="M0 99L10 95C20 91 40 83 60 95.5C80 108 100 141 120 148C140 155 160 136 180 144C200 152 220 187 240 198C260 209 280 196 300 183.3C320 170.7 340 158.3 360 146.2C380 134 400 122 420 114.8C440 107.7 460 105.3 480 107C500 108.7 520 114.3 540 124.7C560 135 580 150 600 145.8C620 141.7 640 118.3 660 117.8C680 117.3 700 139.7 720 156.3C740 173 760 184 780 187.2C800 190.3 820 185.7 840 172.7C860 159.7 880 138.3 890 127.7L900 117L900 0L890 0C880 0 860 0 840 0C820 0 800 0 780 0C760 0 740 0 720 0C700 0 680 0 660 0C640 0 620 0 600 0C580 0 560 0 540 0C520 0 500 0 480 0C460 0 440 0 420 0C400 0 380 0 360 0C340 0 320 0 300 0C280 0 260 0 240 0C220 0 200 0 180 0C160 0 140 0 120 0C100 0 80 0 60 0C40 0 20 0 10 0L0 0Z" fill="#ebd0d0" stroke-linecap="round" stroke-linejoin="miter"></path></svg>