<svg id="visual" viewBox="0 0 900 600" width="900" height="600" xmlns="http://www.w3.org/2000/svg" xmlns:xlink="http://www.w3.org/1999/xlink" version="1.1"><rect x="0" y="0" width="900" height="600" fill="#e8e2d4"></rect><path d="M0 391L10 344C20 297 40 203 60 182C80 161 100 213 120 215C140 217 160 169 180 150.7C200 132.3 220 143.7 240 179.3C260 215 280 275 300 254.3C320 233.7 340 132.3 360 105.5C380 78.7 400 126.3 420 139.7C440 153 460 132 480 136.5C500 141 520 171 540 185.7C560 200.3 580 199.7 600 214.7C620 229.7 640 260.3 660 269C680 277.7 700 264.3 720 256.8C740 249.3 760 247.7 780 265.3C800 283 820 320 840 319.3C860 318.7 880 280.3 890 261.2L900 242L900 0L890 0C880 0 860 0 840 0C820 0 800 0 780 0C760 0 740 0 720 0C700 0 680 0 660 0C640 0 620 0 600 0C580 0 560 0 540 0C520 0 500 0 480 0C460 0 440 0 420 0C400 0 380 0 360 0C340 0 320 0 300 0C280 0 260 0 240 0C220 0 200 0 180 0C160 0 140 0 120 0C100 0 80 0 60 0C40 0 20 0 10 0L0 0Z" fill="#ecd3be" stroke-linecap="round" stroke-linejoin="miter"></path></svg>