<svg id="visual" viewBox="0 0 900 600" width="900" height="600" xmlns="http://www.w3.org/2000/svg" xmlns:xlink="http://www.w3.org/1999/xlink" version="1.1"><rect x="0" y="0" width="900" height="600" fill="#e8e2d4"></rect><path d="M0 242L16.7 235.2C33.3 228.3 66.7 214.7 100 222.5C133.3 230.3 166.7 259.7 200 269.8C233.3 280 266.7 271 300 243C333.3 215 366.7 168 400 160.8C433.3 153.7 466.7 186.3 500 187.8C533.3 189.3 566.7 159.7 600 152C633.3 144.3 666.7 158.7 700 170.3C733.3 182 766.7 191 800 182.3C833.3 173.7 866.7 147.3 883.3 134.2L900 121L900 0L883.3 0C866.7 0 833.3 0 800 0C766.7 0 733.3 0 700 0C666.7 0 633.3 0 600 0C566.7 0 533.3 0 500 0C466.7 0 433.3 0 400 0C366.7 0 333.3 0 300 0C266.7 0 233.3 0 200 0C166.7 0 133.3 0 100 0C66.7 0 33.3 0 16.7 0L0 0Z" fill="#5a2f13" stroke-linecap="round" stroke-linejoin="miter"></path></svg>