<svg id="visual" viewBox="0 0 900 600" width="900" height="600" xmlns="http://www.w3.org/2000/svg" xmlns:xlink="http://www.w3.org/1999/xlink" version="1.1"><rect x="0" y="0" width="900" height="600" fill="#e8e2d4"></rect><path d="M0 149L16.7 141.7C33.3 134.3 66.7 119.7 100 134.5C133.3 149.3 166.7 193.7 200 196.8C233.3 200 266.7 162 300 145.2C333.3 128.3 366.7 132.7 400 127.5C433.3 122.3 466.7 107.7 500 102.3C533.3 97 566.7 101 600 123.8C633.3 146.7 666.7 188.3 700 203.2C733.3 218 766.7 206 800 196C833.3 186 866.7 178 883.3 174L900 170L900 0L883.3 0C866.7 0 833.3 0 800 0C766.7 0 733.3 0 700 0C666.7 0 633.3 0 600 0C566.7 0 533.3 0 500 0C466.7 0 433.3 0 400 0C366.7 0 333.3 0 300 0C266.7 0 233.3 0 200 0C166.7 0 133.3 0 100 0C66.7 0 33.3 0 16.7 0L0 0Z" fill="#ffffff" stroke-linecap="round" stroke-linejoin="miter"></path></svg>